<?xml version="1.0" encoding="utf-8"?>
<!-- Generator: Adobe Illustrator 16.0.0, SVG Export Plug-In . SVG Version: 6.00 Build 0)  -->
<!DOCTYPE svg PUBLIC "-//W3C//DTD SVG 1.1//EN" "http://www.w3.org/Graphics/SVG/1.1/DTD/svg11.dtd">
<svg version="1.1" id="Layer_1" xmlns="http://www.w3.org/2000/svg" xmlns:xlink="http://www.w3.org/1999/xlink" x="0px" y="0px"
	 width="35px" height="35px" viewBox="268 -1 35 35" enable-background="new 268 -1 35 35" xml:space="preserve">
<g>
	<path fill="#498CD6" d="M290.956-0.176c-6.219,0-11.261,5.041-11.261,11.26c0,6.218,5.041,11.26,11.261,11.26
		c6.219,0,11.26-5.042,11.26-11.26C302.216,4.866,297.175-0.176,290.956-0.176z M290.956,20.752c-5.34,0-9.668-4.329-9.668-9.668
		c0-5.34,4.328-9.668,9.668-9.668c5.339,0,9.668,4.329,9.668,9.668C300.624,16.423,296.295,20.752,290.956,20.752z"/>
	<circle fill="#498CD6" cx="290.956" cy="11.084" r="8.71"/>
	<g>
		<path fill="#FFFFFF" d="M289.958,6.423c0.252-0.232,0.553-0.349,0.902-0.349c0.351,0,0.649,0.116,0.9,0.349
			c0.25,0.234,0.375,0.514,0.375,0.842c0,0.328-0.127,0.607-0.378,0.838c-0.252,0.231-0.551,0.346-0.897,0.346
			c-0.349,0-0.65-0.115-0.902-0.346c-0.253-0.231-0.379-0.51-0.379-0.838C289.579,6.938,289.705,6.658,289.958,6.423z"/>
		<path fill="#FFFFFF" d="M293.081,16.094h-4.091v-0.473c0.112-0.009,0.222-0.02,0.33-0.032c0.107-0.014,0.2-0.035,0.278-0.065
			c0.139-0.051,0.235-0.126,0.292-0.223c0.056-0.097,0.085-0.225,0.085-0.385v-3.768c0-0.151-0.035-0.283-0.104-0.397
			c-0.069-0.115-0.156-0.207-0.26-0.275c-0.077-0.052-0.195-0.102-0.353-0.149c-0.157-0.047-0.301-0.077-0.43-0.09V9.763
			l3.171-0.168l0.098,0.096v5.14c0,0.151,0.032,0.279,0.097,0.385c0.064,0.105,0.157,0.184,0.278,0.236
			c0.087,0.039,0.183,0.074,0.284,0.104c0.104,0.03,0.212,0.052,0.324,0.064L293.081,16.094L293.081,16.094L293.081,16.094z"/>
	</g>
</g>
</svg>
